# xmcd
#
# Track frame offsets:
#	150
#	17183
#	42613
#	60814
#	79877
#	99636
#	117530
#	137756
#
# Disc length: 2287 seconds
#
# Revision: 1
# Processed by: cddbd v1.5.2PL0 Copyright (c) Steve Scherf et al.
# Submitted via: audiograbber 1.83.01
#
DISCID=6a08ed08
DTITLE=The Frog - Document
DYEAR=1984
DGENRE=Blues
TTITLE0=Highflyer
TTITLE1=Expect
TTITLE2=Confusion
TTITLE3=Susie
TTITLE4=Keep On Running
TTITLE5=Kick Back
TTITLE6=Say No
TTITLE7=Try
EXTD=
EXTT0=
EXTT1=
EXTT2=
EXTT3=
EXTT4=
EXTT5=
EXTT6=
EXTT7=
PLAYORDER=
